<svg version="1.1" id="Layer_1" xmlns="http://www.w3.org/2000/svg" xmlns:xlink="http://www.w3.org/1999/xlink" x="0px" y="0px"
	 width="100%" viewBox="0 0 672 400" enable-background="new 0 0 672 400" xml:space="preserve">
<path fill="#000000" opacity="1.000000" stroke="none" 
	d="
M503.348450,152.925735 
	C503.400879,157.002884 502.835266,160.688934 505.185059,163.857605 
	C500.679321,165.916031 499.647400,165.420593 499.720123,160.775696 
	C499.876373,150.789993 499.261780,140.874466 497.647186,131.027771 
	C497.110779,127.756493 496.742462,124.342339 495.489990,121.329071 
	C493.247833,115.934647 491.386017,110.507942 490.839508,104.677559 
	C490.573090,101.835609 489.103058,99.851868 486.298737,99.532059 
	C482.944763,99.149559 484.028534,102.433678 482.974274,104.006989 
	C477.904938,111.572090 477.250885,120.590309 474.712677,128.937943 
	C472.615082,135.836609 471.069916,143.106689 471.399109,150.460403 
	C471.670532,156.523712 468.733398,161.882599 468.899261,167.997864 
	C465.165771,167.519592 465.724792,165.182785 465.702698,163.386276 
	C465.622833,156.890213 465.361481,150.375229 465.729401,143.899246 
	C466.468872,130.882629 464.822540,118.303337 461.122345,105.770355 
	C458.700226,97.566383 455.900879,89.765984 450.554535,83.048965 
	C446.393280,77.820892 443.489319,78.407738 440.500397,84.117325 
	C436.264618,92.208710 435.630768,100.932495 435.416443,109.655327 
	C435.072815,123.640289 435.361969,137.640274 435.324402,151.633759 
	C435.317505,154.208221 435.771790,156.247299 437.735687,158.332336 
	C440.797638,161.583191 440.050415,166.168411 438.637756,169.630035 
	C437.502838,172.411087 435.393311,175.079483 434.156494,177.998138 
	C431.139771,177.398575 431.727264,175.239044 431.698090,173.572571 
	C431.325775,152.286407 430.353760,130.982666 430.893219,109.717873 
	C431.296234,93.831581 431.094055,77.821220 433.823883,62.058529 
	C434.270294,59.480915 434.427094,56.336002 439.161285,54.439018 
	C437.797760,64.603020 436.546173,73.932877 435.294556,83.262733 
	C437.474030,79.426529 438.582428,75.360107 444.387146,75.551888 
	C449.381165,75.716888 452.244720,78.188866 454.953949,81.872299 
	C459.833984,88.507088 463.148071,95.700912 464.697693,103.828194 
	C466.444305,112.988655 471.565216,121.568581 469.212311,131.481430 
	C472.401581,120.285172 476.126831,109.373817 479.833435,98.456268 
	C480.816162,95.561714 483.227936,95.740494 485.587097,95.664948 
	C489.396820,95.542946 493.498535,96.634995 493.981079,100.391075 
	C495.671936,113.551712 502.874329,125.409401 502.529358,139.070557 
	C502.418701,143.453354 503.499023,147.950500 503.348450,152.925735 
z"/>
<path fill="#000000" opacity="1.000000" stroke="none" 
	d="
M532.476685,290.386841 
	C529.431580,289.957123 526.435791,291.338440 524.200623,288.994873 
	C524.680420,286.346802 526.680908,286.437408 528.143188,286.737396 
	C534.864441,288.116180 537.299011,283.437195 538.271606,278.648346 
	C540.387512,268.229980 545.450989,258.745422 547.129883,248.160675 
	C547.713745,244.478867 549.502991,240.652237 550.860596,236.934006 
	C552.639465,232.061981 555.803833,229.444153 561.247437,228.710876 
	C575.243652,226.825485 585.699768,232.417786 593.631653,244.364471 
	C598.982605,252.423859 597.402466,260.678101 596.916565,268.864838 
	C596.635742,273.598206 591.486816,276.568390 588.674011,280.438507 
	C584.376221,286.351898 578.716064,288.109558 571.480164,287.483185 
	C563.874817,286.824829 556.167480,287.275024 548.505981,287.360291 
	C543.324097,287.417969 542.153748,289.167603 542.681213,294.155579 
	C544.440979,310.794098 549.218994,326.947418 549.738953,343.858337 
	C549.960083,351.048157 551.222168,358.658661 553.824402,365.740021 
	C554.585327,367.810699 555.077393,370.233215 552.624268,372.310791 
	C548.723877,369.393127 549.134277,364.670807 548.285828,361.047668 
	C545.523010,349.249756 539.499695,338.168213 539.223572,325.931671 
	C538.985962,315.399872 536.078247,305.296387 535.658447,294.862549 
	C535.576721,292.830566 535.757019,290.699585 532.476685,290.386841 
M590.723755,271.159882 
	C592.211609,269.555054 593.584961,267.894562 593.631653,265.540161 
	C593.769409,258.594360 593.979065,251.994507 589.502014,245.605499 
	C583.566223,237.134964 576.401855,232.081116 565.959778,232.370850 
	C557.601868,232.602783 556.024414,234.450333 553.298645,242.879257 
	C551.624695,248.055603 551.193787,253.705215 549.074646,258.503052 
	C545.362122,266.908234 544.000061,275.869873 540.515747,285.295563 
	C543.170105,283.343170 545.354431,283.692352 547.483215,283.686371 
	C555.145142,283.664795 562.889343,282.983154 570.445740,283.876495 
	C577.825256,284.748901 582.335327,281.192719 586.643250,276.423370 
	C587.964294,274.960815 588.998413,273.239105 590.723755,271.159882 
M543.840881,324.720520 
	C543.460999,323.372894 544.239929,321.743317 542.344910,320.068237 
	C543.380310,325.017456 543.074890,329.503204 544.662231,334.006287 
	C544.860352,330.966095 544.721985,328.212189 543.840881,324.720520 
z"/>
<path fill="#000000" opacity="1.000000" stroke="none" 
	d="
M120.833626,255.409714 
	C122.874229,245.986969 124.865829,237.020126 126.857422,228.053299 
	C127.395332,228.149475 127.933235,228.245667 128.471146,228.341858 
	C132.179245,240.215195 123.124016,251.211533 124.865944,264.013611 
	C130.166428,258.072235 131.020905,251.720505 131.591110,245.347046 
	C131.801437,242.995926 131.893860,240.674103 133.099243,238.618759 
	C137.262543,231.519775 136.608780,223.274567 138.518951,215.636383 
	C140.666306,207.049759 150.813599,203.104477 157.862717,208.774002 
	C158.119247,208.980331 158.569473,209.166687 158.598587,209.403091 
	C159.680145,218.184097 167.644562,224.619064 167.225815,233.779022 
	C166.843475,242.142593 169.289612,250.748383 165.339417,258.849213 
	C163.072281,263.498505 159.797546,265.963196 154.245209,266.561646 
	C148.272705,267.205383 142.326828,267.571442 136.407578,267.213837 
	C131.547073,266.920166 129.626221,269.206024 129.457108,273.354706 
	C129.018036,284.126862 126.926331,294.741333 127.203773,305.613892 
	C127.503517,317.360321 124.232544,328.987488 125.268097,340.836212 
	C125.378929,342.104340 125.372009,343.786255 123.562172,343.928070 
	C121.731064,344.071594 120.993660,342.701019 120.765236,341.062531 
	C120.696579,340.570038 120.699814,340.066437 120.686356,339.567474 
	C120.152908,319.797852 118.769310,300.016815 119.865356,280.257935 
	C120.316605,272.123169 120.432915,263.993774 120.833626,255.409714 
M161.301590,225.429047 
	C158.959702,221.678940 155.424194,218.545609 155.461517,213.576447 
	C155.471207,212.286224 154.181747,211.757507 153.124619,211.219223 
	C148.086563,208.653931 143.898178,211.046051 142.419434,216.939621 
	C141.046097,222.413025 141.877289,228.803635 139.504196,233.357758 
	C134.566467,242.833511 136.457230,253.599823 131.254898,263.554565 
	C138.508301,263.572876 144.833527,263.918671 151.286255,262.822540 
	C158.976624,261.516174 163.495377,257.104828 163.645309,249.406433 
	C163.797577,241.588470 164.042404,233.751495 161.301590,225.429047 
M124.874008,268.903625 
	C124.425499,274.261139 123.976997,279.618652 123.528488,284.976166 
	C124.593903,279.640350 126.471046,274.393585 124.874008,268.903625 
M123.661728,294.926178 
	C123.636497,294.433502 123.611267,293.940857 123.586037,293.448181 
	C123.541496,293.448944 123.496964,293.449677 123.452423,293.450439 
	C123.452423,298.792328 123.452423,304.134216 123.452423,309.476135 
	C123.523048,309.475830 123.593681,309.475525 123.664307,309.475220 
	C123.664307,304.853821 123.664307,300.232452 123.661728,294.926178 
z"/>
<path fill="#000000" opacity="1.000000" stroke="none" 
	d="
M531.240295,115.348747 
	C534.563416,110.227699 539.348694,107.041794 543.262329,103.004433 
	C545.099854,101.108803 547.550781,100.820900 550.134338,100.605865 
	C555.164368,100.187195 560.345398,101.892006 565.261719,99.146240 
	C567.202942,98.062111 567.666138,100.064003 568.411499,101.742912 
	C572.068054,109.979057 571.997437,118.911980 573.012817,127.523430 
	C574.222351,137.781921 577.339722,147.160660 581.761292,156.318115 
	C585.250305,163.544052 587.695740,171.418976 592.085449,178.021088 
	C595.906250,183.767593 598.758484,190.732483 605.550903,194.210312 
	C607.864014,193.843719 606.978699,189.917770 609.905945,190.203430 
	C611.408447,193.041275 610.001343,200.163422 607.544312,201.715256 
	C605.829773,202.798141 604.948181,201.516800 603.872986,200.346542 
	C598.884399,194.917084 593.745239,189.466522 590.319092,182.997360 
	C587.283203,177.265182 582.175232,172.519638 581.443237,165.596573 
	C581.359436,164.803650 580.940002,164.000641 580.519775,163.295547 
	C571.343933,147.900284 568.490662,130.858246 567.301514,113.335457 
	C567.301514,116.157578 566.930664,119.038582 567.367737,121.791298 
	C568.994995,132.039627 565.004578,141.426102 562.861389,151.019180 
	C561.038269,159.179886 548.794250,167.406677 540.232361,167.304443 
	C536.931396,167.265030 533.549316,167.933594 530.336487,166.678192 
	C524.777222,164.505905 521.825195,159.799820 521.638245,153.666916 
	C521.224670,140.097229 524.486267,127.476608 531.240295,115.348747 
M562.116577,136.747543 
	C562.255737,136.444824 562.445496,136.155045 562.526733,135.837494 
	C564.920715,126.477615 563.244263,116.976189 563.462585,107.540764 
	C563.486694,106.499397 562.540222,105.873199 561.635376,105.342239 
	C558.371948,103.427330 548.665833,103.983910 545.907471,106.483131 
	C542.851501,109.252052 539.665894,111.969032 537.082581,115.151711 
	C528.583984,125.622169 526.609558,138.263245 525.222595,151.195709 
	C524.579834,157.188995 527.685364,160.595200 532.084839,162.556076 
	C536.566223,164.553467 541.579102,164.768829 546.338440,161.982803 
	C555.771729,156.460754 560.244385,147.940430 562.116577,136.747543 
z"/>
<path fill="#000000" opacity="1.000000" stroke="none" 
	d="
M273.344238,134.179886 
	C273.344543,138.657837 273.553650,142.670822 273.283203,146.651199 
	C273.022400,150.489624 274.373199,153.724899 275.838684,157.117462 
	C278.134949,162.433228 278.367065,168.067520 277.848236,174.329254 
	C273.623016,172.693085 273.982697,169.424973 273.768188,166.775070 
	C273.538483,163.937317 273.417725,161.261353 271.811035,158.716843 
	C269.804535,155.539230 269.627808,151.902252 269.602905,148.167389 
	C269.541565,138.957199 270.691437,129.623138 265.895447,120.926720 
	C263.612640,116.787376 265.766937,111.289246 262.732117,107.054726 
	C260.659851,107.333656 260.067810,109.075882 259.242615,110.360428 
	C254.161423,118.270081 249.176468,126.241753 244.199478,134.217728 
	C243.777710,134.893631 243.509781,135.734131 243.406265,136.528900 
	C242.695602,141.984680 240.674683,146.864090 238.473663,151.941574 
	C236.061569,157.505966 236.177795,164.196594 235.394836,170.421906 
	C235.085236,172.883545 235.327194,175.413910 235.307877,177.912903 
	C235.293518,179.769608 234.785889,181.234787 232.541611,181.232574 
	C230.683029,181.230743 228.864105,180.518372 228.942856,178.579178 
	C229.239456,171.274857 226.501205,163.627579 231.361130,156.782547 
	C232.708069,154.885391 233.519287,152.570099 233.575226,150.222885 
	C233.947662,134.591721 234.150406,118.783051 231.340851,103.511040 
	C229.256454,92.180725 229.467484,80.740082 227.398972,69.619637 
	C224.402542,53.510586 226.495300,37.433056 225.691559,21.371202 
	C225.548248,18.507298 225.703339,18.499537 227.508362,16.191311 
	C229.966583,16.985731 229.282822,19.122684 229.305328,20.788790 
	C229.393082,27.285479 229.706497,33.809769 229.259796,40.277092 
	C228.071915,57.475018 233.173935,74.250603 232.395721,91.396690 
	C239.335602,108.104134 235.001663,125.949295 237.987274,143.132126 
	C239.099792,142.624512 238.535034,141.340958 238.656693,140.365585 
	C239.215286,135.886963 240.866409,132.012024 243.148010,127.985565 
	C247.545609,120.224899 252.568619,112.919060 257.403656,105.467659 
	C258.829468,103.270332 260.357513,101.293144 263.339325,101.818153 
	C266.301819,102.339783 267.691071,104.774506 267.663727,107.246391 
	C267.561035,116.534897 273.571381,124.443108 273.344238,134.179886 
z"/>
<path fill="#000000" opacity="1.000000" stroke="none" 
	d="
M182.006195,32.636353 
	C185.296127,33.223324 188.751312,31.204960 191.051727,34.531910 
	C189.503113,37.233219 187.062653,36.394379 185.123489,36.280544 
	C163.051620,34.984882 140.989746,33.805134 118.853836,34.257347 
	C107.867859,34.481777 98.006531,38.888668 87.637611,41.408722 
	C85.537331,41.919178 85.355019,43.540550 85.355789,45.298084 
	C85.364151,64.288307 84.457291,83.340004 85.737946,102.243645 
	C86.410042,112.164261 87.125923,122.076164 87.411415,132.026581 
	C87.514099,135.605499 90.438805,138.829391 89.287216,142.586090 
	C86.347969,152.174438 87.678368,162.018448 87.258797,171.759720 
	C87.203316,173.047699 87.010338,174.720673 86.197388,175.520477 
	C81.565849,180.077225 82.333115,185.805176 82.302452,191.417572 
	C82.293945,192.974075 82.800301,194.810104 80.841072,195.912231 
	C80.418480,195.785980 79.607071,195.710419 79.574844,195.509735 
	C78.507065,188.860718 76.930061,182.108368 80.933853,175.872055 
	C82.708847,173.107300 83.526810,170.268845 83.718567,166.993866 
	C84.210121,158.598877 82.218086,150.078979 85.382896,141.781860 
	C86.451019,138.981598 83.694679,136.395660 83.506584,133.271011 
	C81.757149,104.209351 81.328568,75.129707 81.714531,46.032600 
	C81.766037,42.149433 80.083366,41.251728 76.591843,41.289856 
	C64.432838,41.422626 52.271446,41.337078 40.110962,41.332870 
	C38.611763,41.332355 37.103863,41.421822 35.615410,41.292377 
	C33.405331,41.100182 29.929695,41.498150 30.412466,38.366337 
	C30.867844,35.412201 33.904083,37.426659 35.900673,37.443344 
	C50.222427,37.563068 64.545418,37.532200 78.867294,37.642742 
	C82.720581,37.672478 81.753716,33.083099 84.258789,32.117249 
	C87.085297,32.376778 85.594986,35.447849 87.676727,36.424946 
	C92.557076,36.359356 97.295113,34.156986 102.159149,32.847553 
	C106.186226,31.763439 110.087402,30.656366 114.268677,30.659494 
	C129.094482,30.670586 143.923615,30.849823 158.744705,30.585434 
	C166.452744,30.447935 173.803513,33.468575 182.006195,32.636353 
z"/>
<path fill="#000000" opacity="1.000000" stroke="none" 
	d="
M380.484375,177.463531 
	C374.168152,187.098724 365.110168,188.117401 354.970764,187.444473 
	C343.879974,186.708420 336.340607,180.477600 329.499329,172.797195 
	C325.649261,168.474869 323.246460,163.183075 320.296082,158.258698 
	C319.036072,156.155655 318.635254,153.977661 318.651367,151.597748 
	C318.704254,143.793030 317.733093,135.778702 319.938477,128.298157 
	C321.308929,123.649605 323.872925,119.363411 328.862183,116.203781 
	C340.841980,108.617180 353.811737,103.836594 367.160187,99.695244 
	C367.633423,99.548431 368.421600,99.467690 368.513428,99.180466 
	C370.440460,93.152367 373.881378,95.721779 377.613037,97.160988 
	C379.396545,97.848831 381.807129,96.811462 383.940430,96.728333 
	C385.244385,96.677521 386.834015,96.723358 386.881775,98.586456 
	C386.922974,100.193115 385.509979,100.222366 384.361969,100.345848 
	C379.997925,100.815262 380.762024,103.124420 382.229553,105.908615 
	C389.369812,119.454979 394.256256,133.485275 393.495178,149.222626 
	C393.174255,155.858734 389.602753,161.075089 388.099243,167.086121 
	C386.964874,171.621429 384.474854,174.772552 380.484375,177.463531 
M380.985382,111.547577 
	C380.159149,110.300522 379.117584,109.144356 378.545898,107.789848 
	C376.616028,103.217644 373.160828,102.199104 368.802155,103.522469 
	C359.096863,106.469170 349.279114,109.350067 340.537720,114.544678 
	C334.666107,118.033913 327.816437,120.392677 324.600708,127.726128 
	C323.237061,130.835907 323.473114,133.821503 322.865082,136.794312 
	C321.736023,142.314606 320.797394,148.582932 323.048248,153.515442 
	C326.889252,161.932617 331.425598,170.167114 339.010101,176.326309 
	C346.470764,182.384933 354.667297,184.096466 364.004181,183.844116 
	C370.398865,183.671265 372.276917,178.329956 376.240234,175.403625 
	C377.027130,174.822632 377.526062,173.863235 378.284668,173.230484 
	C385.911102,166.869537 387.859314,157.717133 389.524261,148.787796 
	C391.980347,135.615234 384.577026,124.285301 380.985382,111.547577 
z"/>
<path fill="#000000" opacity="1.000000" stroke="none" 
	d="
M355.160339,340.591125 
	C356.656616,334.263336 360.563904,329.011993 359.729980,322.470428 
	C359.404968,319.920837 359.749939,317.723511 356.113190,317.125977 
	C352.838135,316.587830 352.725922,313.465027 355.077484,312.093292 
	C360.194061,309.108582 359.975525,304.296967 360.729645,299.587311 
	C362.294434,289.814697 361.497498,279.986633 361.651154,270.182739 
	C361.758179,263.354309 361.625397,256.522278 361.702271,249.693024 
	C361.721039,248.022644 361.080750,245.868744 364.822327,244.976242 
	C365.991089,262.762878 364.894043,280.350830 365.882843,298.154327 
	C371.535034,285.131744 380.946472,274.841461 389.484375,263.509857 
	C391.951263,266.055908 391.638672,268.115143 390.041229,270.146912 
	C386.650879,274.458984 383.733429,279.163483 379.577728,282.844940 
	C378.040344,284.206909 377.061951,285.908417 376.402985,287.841370 
	C374.223663,294.233856 370.670288,299.806610 366.014923,304.653687 
	C364.504486,306.226318 364.304779,308.227661 363.685089,310.083374 
	C362.937714,312.321381 363.847198,313.634308 366.312073,313.646973 
	C369.143951,313.661530 371.981995,313.790924 374.806519,313.651062 
	C380.363190,313.375916 384.330170,315.640625 386.784851,320.637634 
	C388.122528,323.360748 390.133728,325.337372 392.747192,327.045258 
	C399.104645,331.199890 403.876740,337.200348 409.445374,342.285034 
	C410.776337,343.500305 410.863007,345.487335 409.455475,346.755432 
	C407.968384,348.095154 406.628418,346.895111 405.696777,345.660583 
	C403.017731,342.110443 399.729889,339.159424 396.654175,335.987762 
	C394.182983,333.439514 391.566864,331.209381 388.574005,329.392365 
	C386.692139,328.249908 385.303619,326.934723 384.265320,324.822815 
	C381.074707,318.333252 372.483459,315.172791 365.505524,317.477234 
	C363.971863,317.983765 363.252411,318.994202 363.407532,320.438599 
	C364.198547,327.804932 361.912262,334.510071 359.375946,341.244934 
	C358.523193,343.509216 358.582977,346.133759 358.336945,348.604706 
	C358.139404,350.588806 358.380188,353.201477 355.531433,352.873047 
	C353.052155,352.587189 353.687256,350.094543 353.875671,348.356567 
	C354.143219,345.889099 354.634827,343.445923 355.160339,340.591125 
z"/>
<path fill="#000000" opacity="1.000000" stroke="none" 
	d="
M482.931641,312.019104 
	C484.989838,314.657501 488.317719,315.478424 489.498413,318.515259 
	C489.922302,319.605499 490.631378,320.781769 489.434052,321.678619 
	C488.197449,322.604797 487.084412,322.164551 485.952545,321.069946 
	C480.874390,316.158875 475.896301,311.140320 469.996857,307.138916 
	C468.612183,306.199738 467.807404,304.405609 466.760773,303.037354 
	C464.890533,303.403931 465.386993,304.830292 465.371033,305.852997 
	C465.298309,310.513977 464.893738,315.225677 465.412964,319.828339 
	C466.473816,329.232727 463.395081,337.824677 460.844971,346.521484 
	C459.280060,351.858398 453.642609,355.185974 448.369019,354.011993 
	C442.319031,352.665192 436.243011,352.238342 430.064911,352.283325 
	C422.818085,352.336151 419.726410,349.758209 419.797363,342.490601 
	C419.977234,324.064758 418.324005,305.578552 421.444000,287.219635 
	C422.050446,283.651154 421.642792,279.911102 421.713196,276.250397 
	C421.739807,274.864594 421.966888,273.510773 423.479919,272.997101 
	C424.425903,272.675964 425.505219,272.638336 426.317230,273.378876 
	C427.669891,274.612457 426.477936,275.658234 426.107941,276.896027 
	C424.380157,282.676178 425.400879,288.719269 424.495789,294.657043 
	C422.282837,309.174500 423.464020,323.872467 423.366119,338.496460 
	C423.309540,346.947937 425.217743,348.645386 433.680145,348.678558 
	C438.313660,348.696747 442.914581,348.611176 447.524963,349.654510 
	C452.260040,350.725983 455.749146,348.130859 457.436584,343.858398 
	C463.441010,328.655670 461.548370,312.792725 461.519501,297.102203 
	C461.513367,293.758453 459.010437,291.007751 457.694092,287.970673 
	C455.523041,282.961609 457.485840,278.604797 459.077850,272.798126 
	C463.165894,279.421173 466.299744,284.736603 465.410614,291.574860 
	C464.983093,294.863007 464.818909,298.159607 469.685760,299.047394 
	C472.134094,299.494019 471.704102,303.413849 474.517883,304.825470 
	C477.622375,306.382965 480.010284,309.368866 482.931641,312.019104 
z"/>
<path fill="#000000" opacity="1.000000" stroke="none" 
	d="
M631.917358,180.209412 
	C626.728760,181.396088 623.256104,178.495178 619.466187,176.551346 
	C612.091187,172.768738 604.684326,169.048248 597.301636,165.280518 
	C596.427551,164.834473 595.466370,164.399002 594.819824,163.703613 
	C593.753357,162.556442 591.972290,161.276764 593.644592,159.526459 
	C594.964233,158.145325 596.122925,159.402115 597.507690,160.148346 
	C607.951477,165.776398 618.503540,171.203598 629.008972,176.686829 
	C632.993286,169.309372 629.548767,156.110229 622.585815,152.516968 
	C614.033264,148.103439 607.072083,141.925186 600.890747,134.733871 
	C598.630188,132.103928 597.974365,128.724945 597.756104,125.436646 
	C597.214417,117.277634 597.728638,109.159988 599.729187,101.186882 
	C600.724182,97.221375 604.176697,96.154617 607.356384,95.868500 
	C612.642456,95.392845 618.022583,95.503784 623.329102,95.865799 
	C627.300171,96.136719 630.260315,98.943924 632.930176,101.597733 
	C634.984497,103.639702 636.419067,106.305183 638.266113,108.884537 
	C635.465088,111.284637 633.465149,110.459595 631.688477,107.836243 
	C626.315063,99.901947 616.503601,96.525887 607.747986,99.765396 
	C605.789978,100.489830 603.893921,101.508423 603.310791,104.060204 
	C601.858398,110.415092 600.875916,116.793068 601.376953,123.325676 
	C601.976318,131.138855 607.466919,135.834564 612.677856,140.605087 
	C617.896606,145.382797 625.033325,147.636520 629.626465,153.290237 
	C636.064148,161.214355 634.705811,170.324219 633.575073,179.384827 
	C633.537598,179.685410 632.789307,179.897263 631.917358,180.209412 
z"/>
<path fill="#000000" opacity="1.000000" stroke="none" 
	d="
M275.005737,331.335541 
	C264.790131,332.012085 255.493668,331.076233 247.795410,324.215851 
	C243.997238,320.831055 241.053711,317.249664 238.887863,312.184570 
	C235.019302,303.137451 235.234421,294.674530 237.450760,285.570648 
	C238.294891,282.103333 237.635803,278.271942 237.675842,274.606628 
	C237.776871,265.358154 246.327927,256.729889 255.501343,256.682526 
	C264.333405,256.636932 273.166229,256.711731 281.997894,256.635681 
	C287.001923,256.592590 290.867981,259.284851 295.578369,261.090210 
	C293.091949,264.283966 290.229034,263.892944 288.368347,262.705078 
	C284.380981,260.159576 280.171722,260.300690 275.847534,260.320465 
	C270.514954,260.344879 265.182159,260.323944 259.849457,260.330780 
	C248.449112,260.345367 241.097656,267.507111 241.432281,278.970398 
	C241.614822,285.223785 239.354721,291.202087 239.526749,297.221558 
	C239.978043,313.011902 250.789322,327.062714 268.411560,327.641174 
	C273.905029,327.821533 279.409363,327.662354 284.908661,327.677490 
	C288.062958,327.686157 291.282135,328.094208 293.467377,324.908997 
	C294.155670,323.905731 295.430878,323.507233 296.514435,324.510468 
	C297.561646,325.480042 297.127106,326.645111 296.587036,327.724213 
	C295.334381,330.227081 293.243225,331.310089 290.502045,331.309753 
	C285.502716,331.309113 280.503387,331.325867 275.005737,331.335541 
z"/>
<path fill="#000000" opacity="1.000000" stroke="none" 
	d="
M213.243500,240.393478 
	C213.271896,244.168579 213.554977,247.525421 213.157425,250.799637 
	C212.494263,256.261444 208.222260,257.739838 203.336014,255.167053 
	C197.769577,252.236069 197.260773,246.897568 196.058289,241.879410 
	C195.618652,240.044724 197.284988,238.424194 198.715057,237.377747 
	C201.690613,235.200394 210.487122,236.884766 213.243500,240.393478 
z"/>
<path fill="#000000" opacity="1.000000" stroke="none" 
	d="
M201.668976,306.967041 
	C201.920197,298.047363 201.126221,289.530548 202.226913,280.539307 
	C205.676407,282.093750 205.307602,283.764404 205.313156,285.169342 
	C205.356018,295.988586 205.263824,306.808929 205.387482,317.626953 
	C205.418884,320.373352 204.073044,322.356049 202.741119,324.447845 
	C202.101288,325.452698 201.349243,326.527588 199.963257,325.831421 
	C198.441757,325.067200 198.403458,323.441956 199.161957,322.388855 
	C202.481903,317.779205 201.565155,312.552551 201.668976,306.967041 
z"/>
</svg>